<svg id="visual" viewBox="0 0 900 600" width="900" height="600" xmlns="http://www.w3.org/2000/svg" xmlns:xlink="http://www.w3.org/1999/xlink" version="1.1"><path d="M0 175L13.7 189C27.3 203 54.7 231 82 223C109.3 215 136.7 171 163.8 149C191 127 218 127 245.2 137C272.3 147 299.7 167 327 165C354.3 163 381.7 139 409 134C436.3 129 463.7 143 491 165C518.3 187 545.7 217 573 229C600.3 241 627.7 235 654.8 216C682 197 709 165 736.2 141C763.3 117 790.7 101 818 120C845.3 139 872.7 193 886.3 220L900 247L900 0L886.3 0C872.7 0 845.3 0 818 0C790.7 0 763.3 0 736.2 0C709 0 682 0 654.8 0C627.7 0 600.3 0 573 0C545.7 0 518.3 0 491 0C463.7 0 436.3 0 409 0C381.7 0 354.3 0 327 0C299.7 0 272.3 0 245.2 0C218 0 191 0 163.8 0C136.7 0 109.3 0 82 0C54.7 0 27.3 0 13.7 0L0 0Z" fill="#6198ff"></path><path d="M0 229L13.7 243C27.3 257 54.7 285 82 279C109.3 273 136.7 233 163.8 217C191 201 218 209 245.2 215C272.3 221 299.7 225 327 220C354.3 215 381.7 201 409 195C436.3 189 463.7 191 491 215C518.3 239 545.7 285 573 299C600.3 313 627.7 295 654.8 270C682 245 709 213 736.2 198C763.3 183 790.7 185 818 210C845.3 235 872.7 283 886.3 307L900 331L900 245L886.3 218C872.7 191 845.3 137 818 118C790.7 99 763.3 115 736.2 139C709 163 682 195 654.8 214C627.7 233 600.3 239 573 227C545.7 215 518.3 185 491 163C463.7 141 436.3 127 409 132C381.7 137 354.3 161 327 163C299.7 165 272.3 145 245.2 135C218 125 191 125 163.8 147C136.7 169 109.3 213 82 221C54.7 229 27.3 201 13.7 187L0 173Z" fill="#3c80ff"></path><path d="M0 421L13.7 430C27.3 439 54.7 457 82 450C109.3 443 136.7 411 163.8 403C191 395 218 411 245.2 416C272.3 421 299.7 415 327 408C354.3 401 381.7 393 409 381C436.3 369 463.7 353 491 370C518.3 387 545.7 437 573 450C600.3 463 627.7 439 654.8 419C682 399 709 383 736.2 376C763.3 369 790.7 371 818 384C845.3 397 872.7 421 886.3 433L900 445L900 329L886.3 305C872.7 281 845.3 233 818 208C790.7 183 763.3 181 736.2 196C709 211 682 243 654.8 268C627.7 293 600.3 311 573 297C545.7 283 518.3 237 491 213C463.7 189 436.3 187 409 193C381.7 199 354.3 213 327 218C299.7 223 272.3 219 245.2 213C218 207 191 199 163.8 215C136.7 231 109.3 271 82 277C54.7 283 27.3 255 13.7 241L0 227Z" fill="#0066ff"></path><path d="M0 559L13.7 559C27.3 559 54.7 559 82 545C109.3 531 136.7 503 163.8 492C191 481 218 487 245.2 498C272.3 509 299.7 525 327 527C354.3 529 381.7 517 409 509C436.3 501 463.7 497 491 503C518.3 509 545.7 525 573 521C600.3 517 627.7 493 654.8 481C682 469 709 469 736.2 475C763.3 481 790.7 493 818 507C845.3 521 872.7 537 886.3 545L900 553L900 443L886.3 431C872.7 419 845.3 395 818 382C790.7 369 763.3 367 736.2 374C709 381 682 397 654.8 417C627.7 437 600.3 461 573 448C545.7 435 518.3 385 491 368C463.7 351 436.3 367 409 379C381.7 391 354.3 399 327 406C299.7 413 272.3 419 245.2 414C218 409 191 393 163.8 401C136.7 409 109.3 441 82 448C54.7 455 27.3 437 13.7 428L0 419Z" fill="#0059dd"></path><path d="M0 601L13.7 601C27.3 601 54.7 601 82 601C109.3 601 136.7 601 163.8 601C191 601 218 601 245.2 601C272.3 601 299.7 601 327 601C354.3 601 381.7 601 409 601C436.3 601 463.7 601 491 601C518.3 601 545.7 601 573 601C600.3 601 627.7 601 654.8 601C682 601 709 601 736.2 601C763.3 601 790.7 601 818 601C845.3 601 872.7 601 886.3 601L900 601L900 551L886.3 543C872.7 535 845.3 519 818 505C790.7 491 763.3 479 736.2 473C709 467 682 467 654.8 479C627.7 491 600.3 515 573 519C545.7 523 518.3 507 491 501C463.7 495 436.3 499 409 507C381.7 515 354.3 527 327 525C299.7 523 272.3 507 245.2 496C218 485 191 479 163.8 490C136.7 501 109.3 529 82 543C54.7 557 27.3 557 13.7 557L0 557Z" fill="#004cbb"></path></svg>